<svg id="_2" data-name="2" xmlns="http://www.w3.org/2000/svg" width="39" height="34" viewBox="0 0 39 34">
  <defs>
    <style>
      .cls-1, .cls-2, .cls-3 {
        fill: none;
        stroke-width: 1.5px;
      }

      .cls-1, .cls-3 {
        stroke: #000;
      }

      .cls-1, .cls-2 {
        fill-rule: evenodd;
      }

      .cls-2 {
        stroke: #35373e;
        stroke-linecap: round;
        stroke-linejoin: round;
      }
    </style>
  </defs>
  <path id="Фигура_20" data-name="Фигура 20" class="cls-1" d="M15.551,28.961c0.067-.22.137-0.439,0.2-0.661,0.274-.966.544-1.933,0.82-2.9,0.516-1.805,1.037-3.609,1.546-5.416a0.881,0.881,0,0,0-.029-0.408c-0.133-.587-0.278-1.171-0.416-1.757a0.418,0.418,0,0,1,0-.1c0.349,0.231.687,0.477,1.046,0.686,0.666,0.388,1.34.762,2.019,1.128,0.662,0.356,1.335.691,2,1.042a5.78,5.78,0,0,1,1.225.861,2.811,2.811,0,0,1,.787,1.454,13.847,13.847,0,0,1,.291,1.547c0.084,0.671.131,1.347,0.177,2.022,0.034,0.5.041,0.995,0.061,1.492,0.019,0.478.032,0.956,0.06,1.434a0.232,0.232,0,0,1-.155.265,28.661,28.661,0,0,1-5.558,1.92c-0.721.172-1.452,0.3-2.183,0.421-0.555.092-1.115,0.166-1.675,0.206-0.843.06-1.689,0.1-2.535,0.116a12.772,12.772,0,0,1-1.47-.058C11.026,32.195,10.3,32.1,9.568,32a26.352,26.352,0,0,1-4.106-.947,28.4,28.4,0,0,1-3.69-1.415c-0.173-.081-0.1-0.211-0.1-0.324s0.02-.2.022-0.308c0.012-.583.014-1.166,0.034-1.748,0.018-.522.042-1.044,0.086-1.563a14.814,14.814,0,0,1,.46-2.9,2.86,2.86,0,0,1,.794-1.385,5.688,5.688,0,0,1,1.142-.8c1.075-.569,2.161-1.115,3.225-1.7,0.611-.339,1.186-0.746,1.777-1.122L9.345,17.7c-0.062.263-.117,0.5-0.174,0.74-0.108.448-.219,0.9-0.321,1.346A0.461,0.461,0,0,0,8.874,20Q9.688,22.848,10.5,25.7c0.306,1.072.609,2.146,0.913,3.219a0.278,0.278,0,0,0,.041.058c0.1-.646.2-1.274,0.3-1.9s0.21-1.24.312-1.861c0.082-.5.156-1,0.238-1.5s0.165-1.009.255-1.512a0.721,0.721,0,0,0-.109-0.629c-0.22-.284-0.4-0.6-0.6-0.9a0.169,0.169,0,0,1-.017-0.194c0.152-.32.3-0.644,0.44-0.968a0.163,0.163,0,0,1,.174-0.114q1.042,0.006,2.083,0a0.163,0.163,0,0,1,.174.113c0.145,0.329.3,0.654,0.44,0.985a0.225,0.225,0,0,1-.023.177c-0.217.342-.438,0.682-0.668,1.014a0.43,0.43,0,0,0-.065.339c0.135,0.827.268,1.655,0.4,2.482,0.131,0.793.268,1.585,0.4,2.379,0.113,0.691.22,1.383,0.33,2.075ZM18.542,9.386a0.617,0.617,0,0,1,.534.57,2.609,2.609,0,0,1-.031.618A7.681,7.681,0,0,1,18.212,13a2.872,2.872,0,0,1-.259.4,0.266,0.266,0,0,1-.356.085c-0.114-.056-0.168,0-0.221.1a3.311,3.311,0,0,0-.288,1.093c-0.059.4-.106,0.8-0.142,1.209a3.271,3.271,0,0,0,0,.657,0.272,0.272,0,0,1-.09.238,2.69,2.69,0,0,1-.909.656,4.6,4.6,0,0,1-1.524.4,9.435,9.435,0,0,1-.948.056,5.5,5.5,0,0,1-2.74-.766c-0.236-.138-0.466-0.288-0.7-0.428a0.241,0.241,0,0,1-.131-0.246c0.017-.439.038-0.879,0.027-1.317a2.954,2.954,0,0,0-.282-1.273c-0.008-.017-0.019-0.032-0.021-0.036a0.754,0.754,0,0,1-.254.113,0.444,0.444,0,0,1-.249-0.1,1.863,1.863,0,0,1-.66-1.084c-0.164-.609-0.333-1.216-0.478-1.83a1.991,1.991,0,0,1-.022-0.609,0.747,0.747,0,0,1,.5-0.622,0.456,0.456,0,0,0,.041-0.02C8.36,9.057,8.176,8.451,8.072,7.83A7.362,7.362,0,0,1,7.981,6.3a4.675,4.675,0,0,1,.932-2.66,4.445,4.445,0,0,1,2.728-1.756,12.382,12.382,0,0,1,1.3-.128c0.07-.006.141-0.019,0.211-0.029l0.011,0.042-0.826.243a0.139,0.139,0,0,0,.017.037c0.541,0.032,1.085.043,1.624,0.1a5.23,5.23,0,0,1,2.537.886,5.4,5.4,0,0,1,1.527,1.813A5.363,5.363,0,0,1,18.7,6.675a4.373,4.373,0,0,1,.043,1.336C18.671,8.464,18.609,8.917,18.542,9.386Z"/>
  <path id="Фигура_1" data-name="Фигура 1" class="cls-2" d="M30.611,4.657L30.6,8.465l2.685,2.74"/>
  <circle id="Эллипс_1" data-name="Эллипс 1" class="cls-3" cx="30.609" cy="8.422" r="7.391"/>
</svg>
