<svg id="Группа_28" data-name="Группа 28" xmlns="http://www.w3.org/2000/svg" width="30" height="32" viewBox="0 0 30 32">
  <defs>
    <style>
      .cls-1 {
        fill: none;
        stroke: #000;
        stroke-width: 1.5px;
        fill-rule: evenodd;
      }
    </style>
  </defs>
  <path id="Фигура_362" data-name="Фигура 362" class="cls-1" d="M27.661,15.656a5.506,5.506,0,0,0-3.8-1.156c-0.562,0-1.107.037-1.62,0.074a0.77,0.77,0,0,1-.184-0.044,1.634,1.634,0,0,0-.383-0.077,3.023,3.023,0,0,1-1.307-.5,18.234,18.234,0,0,1-2.114-2.29l-0.473-.569a13.13,13.13,0,0,1-2.444-3.755,5.684,5.684,0,0,1-.352-2.381c0.005-.174.017-0.342,0.026-0.506a4.774,4.774,0,0,0-.148-1.934A2.136,2.136,0,0,0,12.711,1.01,3.411,3.411,0,0,0,10.7,1.7,6.086,6.086,0,0,0,8.264,6.5,7.666,7.666,0,0,0,8.926,9.6a7.109,7.109,0,0,1,.6,2.479c0,1.294-1.167,1.654-2.812,2.021-0.18.04-.358,0.08-0.5,0.115-0.188.033-.38,0.064-0.574,0.1a6.753,6.753,0,0,0-3.646,1.349,3.479,3.479,0,0,0-.926,3.068A2.807,2.807,0,0,0,2.24,20.623a3.622,3.622,0,0,0,1.7,3.878A2.955,2.955,0,0,0,4.3,26.507a3.533,3.533,0,0,0,1.781,1.6,2.94,2.94,0,0,0,2.333,2.772A6.8,6.8,0,0,0,9.727,31a20.057,20.057,0,0,0,2.143-.156l0.734-.079c0.412-.081.842-0.132,1.274-0.186a10.1,10.1,0,0,0,2.644-.569A10.37,10.37,0,0,0,18.367,28.9c0.187-.131.371-0.259,0.561-0.387a5.465,5.465,0,0,0,.565-0.469,2.475,2.475,0,0,1,1-.671c0.295-.055.575-0.084,0.847-0.112,0.3-.032.6-0.063,0.887-0.121h0.143c0.3,0,.639.017,0.986,0.039,0.395,0.022.806,0.047,1.212,0.047a3.819,3.819,0,0,0,3.066-1.08c1.193-1.36,1.364-3.433,1.372-5.468V20.587C29.029,19.094,29.042,16.836,27.661,15.656Z"/>
  <path id="Фигура_363" data-name="Фигура 363" class="cls-1" d="M21.393,14.53s3.036,8.262-.854,12.489"/>
</svg>
