<svg id="Группа_1" data-name="Группа 1" xmlns="http://www.w3.org/2000/svg" width="63" height="30" viewBox="0 0 63 30">
  <defs>
    <style>
      .cls-1 {
        fill: none;
        stroke: #000;
        stroke-linecap: round;
        stroke-linejoin: round;
        stroke-width: 1.3px;
      }

      .cls-1, .cls-2 {
        fill-rule: evenodd;
      }
    </style>
  </defs>
  <path id="Фигура_37" data-name="Фигура 37" class="cls-1" d="M24.95,28.993h3.878c0.046,0,.1,0,0.164,0m0.032-1.91-1.231-.534,0.862-2.607H21.245l0.862,2.617L19.78,27.577a0.722,0.722,0,0,0-.431.844c0,0.766,1.295.591,1.724,0.591H24.95"/>
  <path id="Фигура_36" data-name="Фигура 36" class="cls-2" d="M12.418,15.488c-0.346,0-.691,0-1.037,0a0.424,0.424,0,1,1-.005-0.846q1.051,0,2.1,0a0.424,0.424,0,1,1-.009.846C13.119,15.489,12.769,15.488,12.418,15.488ZM12.356,26.979c0.18,0,.36,0,0.539,0a0.423,0.423,0,1,1,.005.845q-0.546.005-1.093,0A0.422,0.422,0,1,1,11.8,26.98C11.987,26.976,12.172,26.979,12.356,26.979ZM4.02,20.934H3a0.425,0.425,0,1,1-.005-0.846q1.044,0,2.088,0a0.424,0.424,0,1,1,.005.846C4.73,20.935,4.375,20.934,4.02,20.934ZM4.006,27.826c-0.166,0-.331,0-0.5,0A0.423,0.423,0,1,1,3.5,26.98q0.5-.006,1.008,0a0.421,0.421,0,0,1,.434.426,0.426,0.426,0,0,1-.442.419h-0.5Zm20.751-6.971h1.335a0.426,0.426,0,1,1,0,.846H23.431a0.427,0.427,0,1,1,0-.846h1.321ZM45.5,27.289c0.436,0,.871,0,1.307,0a0.425,0.425,0,1,1,.005.846q-1.328,0-2.657,0a0.424,0.424,0,1,1-.005-0.846C44.6,27.288,45.046,27.289,45.5,27.289Z"/>
  <path id="Прямоугольник_1" data-name="Прямоугольник 1" class="cls-1" d="M0.812,18.125H7.406V29.188H0.812V18.125Z"/>
  <path id="Прямоугольник_1-2" data-name="Прямоугольник 1" class="cls-1" d="M5.732,18.2v-5.82h13.1v16.8H7.38"/>
  <path id="Прямоугольник_1-3" data-name="Прямоугольник 1" class="cls-1" d="M8.662,12.568V0.818H41.238V8.447M31.926,24.031H18.761"/>
  <path id="Прямоугольник_1-4" data-name="Прямоугольник 1" class="cls-1" d="M31.938,8.625H59.563V25.188H31.938V8.625Z"/>
  <path id="Прямоугольник_1-5" data-name="Прямоугольник 1" class="cls-1" d="M28.875,25.719H62.188v3.469H28.875V25.719Z"/>
  <path id="Фигура_38" data-name="Фигура 38" class="cls-1" d="M18.745,19.3H31.931"/>
</svg>
