<svg xmlns="http://www.w3.org/2000/svg" width="44" height="38" viewBox="0 0 44 38">
  <defs>
    <style>
      .cls-1 {
        fill-rule: evenodd;
      }
    </style>
  </defs>
  <path id="Фигура_37" data-name="Фигура 37" class="cls-1" d="M34.006,15.381H29.034V14.669a0.761,0.761,0,0,0-.747-0.775H14.71a0.761,0.761,0,0,0-.747.775v0.712H8.991a0.761,0.761,0,0,0-.747.775v3.51a3.639,3.639,0,0,0,1.014,2.54,3.377,3.377,0,0,0,2.448,1.052h2.448a7.655,7.655,0,0,0,6.6,6.028v3.489h-2a2.138,2.138,0,0,0-2.095,2.174v1.275A0.761,0.761,0,0,0,17.4,37h8.19a0.761,0.761,0,0,0,.747-0.775V34.95a2.138,2.138,0,0,0-2.1-2.174h-2V29.287a7.654,7.654,0,0,0,6.6-6.028h2.448a3.533,3.533,0,0,0,3.462-3.593v-3.51A0.762,0.762,0,0,0,34.006,15.381ZM24.847,34.95v0.5h-6.7v-0.5a0.614,0.614,0,0,1,.6-0.624h5.494A0.614,0.614,0,0,1,24.847,34.95ZM13.964,21.709H11.706a1.92,1.92,0,0,1-1.392-.6,2.068,2.068,0,0,1-.576-1.444V16.931h4.226v4.777h0Zm13.576-.2A6.167,6.167,0,0,1,21.5,27.775,6.166,6.166,0,0,1,15.457,21.5V15.444H27.541V21.5Zm1.492-4.573H33.26v2.735a2.009,2.009,0,0,1-1.968,2.043H29.033V16.931ZM18.327,8.138l-0.56,3.069a0.789,0.789,0,0,0,.295.771,0.724,0.724,0,0,0,.8.053l2.639-1.5,2.639,1.5a0.724,0.724,0,0,0,.8-0.053,0.79,0.79,0,0,0,.295-0.771L24.67,8.138,26.862,6a0.8,0.8,0,0,0,.2-0.8,0.754,0.754,0,0,0-.616-0.529l-2.985-.4L22.174,1.444a0.735,0.735,0,0,0-1.351,0L19.539,4.269l-2.985.4a0.754,0.754,0,0,0-.616.529,0.8,0.8,0,0,0,.2.8Zm1.806-2.386a0.749,0.749,0,0,0,.581-0.438L21.5,3.591l0.784,1.724a0.75,0.75,0,0,0,.581.438l1.822,0.241L23.348,7.3a0.794,0.794,0,0,0-.222.709l0.342,1.873-1.611-.916a0.723,0.723,0,0,0-.718,0l-1.611.916,0.342-1.873A0.793,0.793,0,0,0,19.649,7.3L18.312,5.994Zm16.83,2.206a0.754,0.754,0,0,0-.616-0.529L34.2,7.144,33.269,5.107a0.735,0.735,0,0,0-1.351,0L30.992,7.144l-2.153.285a0.754,0.754,0,0,0-.616.529,0.8,0.8,0,0,0,.2.8L30,10.306l-0.4,2.213a0.789,0.789,0,0,0,.295.771,0.724,0.724,0,0,0,.8.053l1.9-1.082,1.9,1.082a0.724,0.724,0,0,0,.8-0.053,0.79,0.79,0,0,0,.295-0.771l-0.4-2.213,1.58-1.544A0.8,0.8,0,0,0,36.964,7.959Zm-3.1,1.51a0.794,0.794,0,0,0-.222.709l0.186,1.017-0.875-.5a0.723,0.723,0,0,0-.718,0l-0.875.5,0.186-1.017a0.794,0.794,0,0,0-.222-0.709L30.6,8.759l0.989-.131a0.749,0.749,0,0,0,.581-0.438l0.426-.936L33.02,8.19a0.75,0.75,0,0,0,.581.438l0.99,0.131ZM10.4,12.261l1.9,1.083a0.724,0.724,0,0,0,.8-0.053,0.79,0.79,0,0,0,.295-0.771L13,10.307l1.58-1.544a0.8,0.8,0,0,0,.2-0.8,0.754,0.754,0,0,0-.616-0.529l-2.153-.285L11.079,5.107a0.735,0.735,0,0,0-1.351,0L8.8,7.144l-2.153.285a0.754,0.754,0,0,0-.616.529,0.8,0.8,0,0,0,.2.8l1.58,1.544-0.4,2.213a0.789,0.789,0,0,0,.295.771,0.724,0.724,0,0,0,.8.053ZM9.4,8.628A0.749,0.749,0,0,0,9.978,8.19L10.4,7.254,10.829,8.19a0.749,0.749,0,0,0,.581.438L12.4,8.759l-0.726.71a0.793,0.793,0,0,0-.222.709l0.186,1.017-0.875-.5a0.723,0.723,0,0,0-.718,0l-0.875.5,0.186-1.017a0.793,0.793,0,0,0-.222-0.709l-0.726-.71Z"/>
</svg>
