<svg xmlns="http://www.w3.org/2000/svg" width="33" height="33" viewBox="0 0 33 33">
  <defs>
    <style>
      .cls-1 {
        fill-rule: evenodd;
      }
    </style>
  </defs>
  <path id="Фигура_39" data-name="Фигура 39" class="cls-1" d="M32.473,12.655a4.248,4.248,0,0,0-.883-2.6V3.944a1.988,1.988,0,1,0-1.155,0V9.02a4.111,4.111,0,0,0-4.2-.04V3.944a1.988,1.988,0,1,0-1.156,0V9.967a4.25,4.25,0,0,0-.952,2.688v5.9a13.454,13.454,0,0,0-2.772-4.023,13.2,13.2,0,0,0-9.4-3.922A10.542,10.542,0,0,0,4.4,13.779a10.844,10.844,0,0,0-3.13,7.663,8.82,8.82,0,0,0,3.636,7.152L0.245,31.935a0.59,0.59,0,0,0-.217.656A0.579,0.579,0,0,0,.578,33h23.93a7.926,7.926,0,0,0,5.918-2.161,7.74,7.74,0,0,0,2.047-5.056V12.655h0ZM30.181,2.016a0.832,0.832,0,1,1,.832.844A0.839,0.839,0,0,1,30.181,2.016Zm-5.357,0a0.832,0.832,0,1,1,.832.844A0.839,0.839,0,0,1,24.824,2.016ZM2.427,21.442a9.671,9.671,0,0,1,2.791-6.834,9.4,9.4,0,0,1,6.739-2.831A12.21,12.21,0,0,1,24.118,23.572L16.4,25.925a7.192,7.192,0,0,0,.582-2.843,5.8,5.8,0,0,0-5.753-5.835,4.655,4.655,0,0,0-3.336,1.4,4.788,4.788,0,0,0-1.382,3.383,3.922,3.922,0,0,0,3.89,3.945A3.255,3.255,0,0,0,13.63,22.7a2.72,2.72,0,0,0-2.7-2.736,2.243,2.243,0,0,0-1.608.675,2.307,2.307,0,0,0-.666,1.631,1.95,1.95,0,0,0,1.934,1.962,0.586,0.586,0,0,0,0-1.172,0.785,0.785,0,0,1-.779-0.79,1.135,1.135,0,0,1,.327-0.8,1.1,1.1,0,0,1,.791-0.332A1.555,1.555,0,0,1,12.474,22.7a2.089,2.089,0,0,1-2.072,2.1,2.757,2.757,0,0,1-2.735-2.773,3.615,3.615,0,0,1,1.043-2.555A3.515,3.515,0,0,1,11.23,18.42a4.636,4.636,0,0,1,4.6,4.663,5.941,5.941,0,0,1-5.892,5.975A7.571,7.571,0,0,1,2.427,21.442ZM29.6,30.024a6.84,6.84,0,0,1-5.088,1.8H2.4l3.5-2.509a0.571,0.571,0,0,0,.075-0.065,8.513,8.513,0,0,0,3.964.975A7.008,7.008,0,0,0,15.545,27.4a0.57,0.57,0,0,0,.078-0.018l9.247-2.82a0.585,0.585,0,0,0,.411-0.561V12.655a3.018,3.018,0,1,1,6.036,0V25.788A6.645,6.645,0,0,1,29.6,30.024Z"/>
</svg>
