<svg id="Группа_27" data-name="Группа 27" xmlns="http://www.w3.org/2000/svg" width="45" height="32" viewBox="0 0 45 32">
  <defs>
    <style>
      .cls-1 {
        fill: none;
        stroke: #000;
        stroke-linecap: round;
        stroke-linejoin: round;
        stroke-width: 1.5px;
        fill-rule: evenodd;
      }
    </style>
  </defs>
  <path id="Фигура_25" data-name="Фигура 25" class="cls-1" d="M7.477,20.138A4.26,4.26,0,0,0,8.816,23a4.28,4.28,0,0,0,3.6,1.25,4.487,4.487,0,0,0-.511-8.939A4.548,4.548,0,0,0,7.477,20.138Z"/>
  <path id="Фигура_25_копия_2" data-name="Фигура 25 копия 2" class="cls-1" d="M3.218,20.007c0-.37-0.017-0.741.006-1.109a0.577,0.577,0,0,0-.209-0.5c-0.6-.546-1.187-1.095-1.781-1.642a0.551,0.551,0,0,1-.149-0.721c0.136-.331.266-0.663,0.4-0.995a0.576,0.576,0,0,1,.583-0.369c0.871,0.03,1.742.06,2.614,0.084a0.3,0.3,0,0,0,.2-0.07c0.609-.6,1.212-1.2,1.818-1.808a0.26,0.26,0,0,0,.084-0.241,5.229,5.229,0,0,1-.043-0.561c-0.018-.718-0.031-1.436-0.047-2.153a0.4,0.4,0,0,1,.253-0.384,12.721,12.721,0,0,1,1.174-.493,0.534,0.534,0,0,1,.608.153c0.587,0.648,1.189,1.283,1.79,1.918a0.334,0.334,0,0,0,.219.094q1.254,0.01,2.508,0a0.376,0.376,0,0,0,.241-0.11c0.607-.642,1.207-1.293,1.81-1.94a0.517,0.517,0,0,1,.578-0.115c0.4,0.144.8,0.318,1.186,0.5a0.425,0.425,0,0,1,.246.426c-0.018.508-.021,1.017-0.038,1.526-0.013.385-.045,0.769-0.055,1.154a0.358,0.358,0,0,0,.092.236Q18.2,13.8,19.11,14.7a0.255,0.255,0,0,0,.171.058c0.862-.024,1.724-0.047,2.585-0.085a0.631,0.631,0,0,1,.653.409c0.128,0.367.3,0.718,0.445,1.079a0.485,0.485,0,0,1-.163.555c-0.455.435-.921,0.86-1.381,1.289-0.2.184-.394,0.369-0.586,0.558a0.2,0.2,0,0,0-.057.13c0,0.868,0,1.737,0,2.605a0.317,0.317,0,0,0,.1.2c0.644,0.607,1.293,1.207,1.938,1.813a0.49,0.49,0,0,1,.118.594c-0.145.348-.287,0.7-0.431,1.045a0.591,0.591,0,0,1-.576.385c-0.872-.034-1.744-0.064-2.617-0.1a0.274,0.274,0,0,0-.232.09c-0.61.618-1.228,1.228-1.841,1.843a0.184,0.184,0,0,0-.035.126c0.022,0.541.051,1.081,0.07,1.622,0.014,0.4.03,0.793,0.019,1.189a0.5,0.5,0,0,1-.377.418c-0.367.155-.733,0.313-1.107,0.45a0.441,0.441,0,0,1-.485-0.12c-0.359-.374-0.713-0.753-1.068-1.131-0.266-.282-0.528-0.568-0.8-0.846a0.29,0.29,0,0,0-.182-0.084c-0.852-.006-1.7,0-2.556-0.009a0.486,0.486,0,0,0-.365.255c-0.539.565-1.072,1.136-1.594,1.717a0.612,0.612,0,0,1-.8.15c-0.342-.157-0.691-0.3-1.033-0.458a0.392,0.392,0,0,1-.247-0.391c0.031-.915.057-1.831,0.1-2.747a0.41,0.41,0,0,0-.205-0.313c-0.566-.578-1.144-1.144-1.72-1.713a0.164,0.164,0,0,0-.105-0.045Q3.6,25.266,2.443,25.3c-0.16,0-.32.032-0.479,0.024a0.472,0.472,0,0,1-.4-0.256,7.921,7.921,0,0,1-.51-1.148,0.5,0.5,0,0,1,.13-0.633c0.634-.593,1.265-1.189,1.9-1.778a0.341,0.341,0,0,0,.132-0.282C3.213,20.822,3.218,20.415,3.218,20.007Z"/>
  <path id="Фигура_25_копия_3" data-name="Фигура 25 копия 3" class="cls-1" d="M30.86,12.362A3.8,3.8,0,0,0,36,14.173a3.805,3.805,0,0,0-3.044-6.956A3.857,3.857,0,0,0,30.86,12.362Z"/>
  <path id="Фигура_25_копия_3-2" data-name="Фигура 25 копия 3" class="cls-1" d="M27.435,13.516c-0.109-.294-0.232-0.584-0.322-0.884a0.488,0.488,0,0,0-.314-0.337c-0.634-.258-1.267-0.521-1.9-0.78a0.468,0.468,0,0,1-.332-0.53c0.01-.3.016-0.606,0.023-0.909a0.489,0.489,0,0,1,.355-0.465q1.052-.349,2.1-0.7a0.252,0.252,0,0,0,.136-0.113c0.307-.657.608-1.316,0.912-1.974a0.22,0.22,0,0,0,0-.216,4.463,4.463,0,0,1-.2-0.433c-0.226-.565-0.448-1.132-0.672-1.7a0.34,0.34,0,0,1,.088-0.38A10.752,10.752,0,0,1,28.1,3.353,0.452,0.452,0,0,1,28.624,3.3c0.658,0.342,1.324.669,1.989,1a0.288,0.288,0,0,0,.2.011q1-.363,1.994-0.741A0.319,0.319,0,0,0,32.969,3.4c0.293-.691.578-1.384,0.867-2.077a0.438,0.438,0,0,1,.425-0.262c0.363,0,.728.017,1.09,0.047a0.361,0.361,0,0,1,.322.266c0.136,0.41.284,0.815,0.42,1.225,0.1,0.31.191,0.625,0.3,0.934a0.3,0.3,0,0,0,.143.16Q37.514,4.159,38.5,4.6a0.218,0.218,0,0,0,.153,0c0.678-.274,1.356-0.546,2.03-0.831a0.535,0.535,0,0,1,.64.133c0.21,0.254.45,0.483,0.672,0.726a0.411,0.411,0,0,1,.034.489c-0.233.48-.478,0.955-0.717,1.432-0.1.2-.2,0.41-0.3,0.617a0.171,0.171,0,0,0-.007.12c0.254,0.691.509,1.382,0.77,2.071a0.269,0.269,0,0,0,.14.127c0.691,0.292,1.385.578,2.076,0.869a0.416,0.416,0,0,1,.269.438c-0.013.32-.023,0.639-0.034,0.959a0.5,0.5,0,0,1-.344.476c-0.7.23-1.406,0.464-2.109,0.7a0.231,0.231,0,0,0-.158.14c-0.3.671-.614,1.338-0.92,2.008a0.157,0.157,0,0,0,.009.111c0.177,0.423.36,0.844,0.534,1.268,0.128,0.311.258,0.622,0.366,0.94a0.422,0.422,0,0,1-.176.444c-0.246.232-.491,0.465-0.747,0.685a0.374,0.374,0,0,1-.421.048c-0.4-.192-0.789-0.389-1.183-0.585-0.294-.146-0.587-0.3-0.884-0.437a0.242,0.242,0,0,0-.17-0.013c-0.679.247-1.355,0.5-2.035,0.747a0.412,0.412,0,0,0-.215.309c-0.262.608-.517,1.22-0.761,1.835a0.519,0.519,0,0,1-.588.354c-0.319-.024-0.638-0.034-0.956-0.06a0.333,0.333,0,0,1-.312-0.238c-0.245-.737-0.495-1.473-0.735-2.212a0.348,0.348,0,0,0-.255-0.189c-0.62-.293-1.247-0.572-1.873-0.854a0.138,0.138,0,0,0-.1,0q-0.911.364-1.819,0.735c-0.126.051-.245,0.12-0.374,0.161a0.4,0.4,0,0,1-.391-0.086,6.772,6.772,0,0,1-.744-0.762,0.428,0.428,0,0,1-.084-0.542c0.329-.659.655-1.318,0.988-1.975a0.289,0.289,0,0,0,.021-0.263C27.672,14.165,27.555,13.839,27.435,13.516Z"/>
</svg>
