<svg xmlns="http://www.w3.org/2000/svg" width="28" height="33" viewBox="0 0 28 33">
  <defs>
    <style>
      .cls-1 {
        fill-rule: evenodd;
      }
    </style>
  </defs>
  <path id="Фигура_38" data-name="Фигура 38" class="cls-1" d="M19.8,2.279a0.738,0.738,0,0,1,.085-1.047l1.212-1.021A0.755,0.755,0,0,1,22.151.3a0.738,0.738,0,0,1-.085,1.047L20.854,2.363A0.755,0.755,0,0,1,19.8,2.279Zm2.181,3.143a0.744,0.744,0,1,0-.01,1.488l1.591,0.013h0.005a0.745,0.745,0,1,0,0-1.489ZM21.027,4.033a0.753,0.753,0,0,0,.961.444l2.636-.95a0.741,0.741,0,0,0,.448-0.952,0.752,0.752,0,0,0-.961-0.444l-2.636.95A0.741,0.741,0,0,0,21.027,4.033ZM15.646,27.54a4.376,4.376,0,0,1-.523,1.307c-0.719,1.235-1.592,1.774-2.288,1.422l-1.1-.487a6.392,6.392,0,0,1-1.361.779l-0.124,1.183C10.212,32.52,9.3,33,7.861,33s-2.348-.478-2.388-1.251L5.349,30.562a6.391,6.391,0,0,1-1.361-.779l-1.1.486c-0.7.356-1.569-.183-2.291-1.421s-0.756-2.254-.1-2.674l0.971-.7a6.37,6.37,0,0,1,0-1.564l-0.971-.7c-0.655-.421-0.619-1.439.1-2.673s1.595-1.777,2.291-1.421L3.976,19.6a6.391,6.391,0,0,1,1.374-.788l0.123-1.173c0.041-.773.949-1.251,2.388-1.251s2.351,0.479,2.388,1.254l0.123,1.17a6.393,6.393,0,0,1,1.374.788l1.089-.482c0.7-.353,1.569.187,2.289,1.422a4.374,4.374,0,0,1,.523,1.307,1.2,1.2,0,0,1-.424,1.367l-0.969.7a6.364,6.364,0,0,1,0,1.564l0.971,0.7A1.2,1.2,0,0,1,15.646,27.54ZM13,22.977l1.175-.843a3.375,3.375,0,0,0-.917-1.573l-1.322.585a0.755,0.755,0,0,1-.8-0.122,4.916,4.916,0,0,0-1.7-.973,0.744,0.744,0,0,1-.507-0.627L8.778,18a2.99,2.99,0,0,0-.917-0.124A2.987,2.987,0,0,0,6.944,18L6.795,19.423a0.744,0.744,0,0,1-.507.627,4.919,4.919,0,0,0-1.7.974,0.756,0.756,0,0,1-.8.122l-1.322-.585a2.937,2.937,0,0,0-.567.725,2.913,2.913,0,0,0-.35.849l1.175,0.843a0.739,0.739,0,0,1,.3.747,4.895,4.895,0,0,0,0,1.938,0.739,0.739,0,0,1-.3.749l-1.177.844a2.919,2.919,0,0,0,.35.849,2.94,2.94,0,0,0,.567.724L3.8,28.24a0.756,0.756,0,0,1,.8.121,4.919,4.919,0,0,0,1.688.966,0.744,0.744,0,0,1,.507.627l0.15,1.437a2.989,2.989,0,0,0,.917.124,2.992,2.992,0,0,0,.917-0.124l0.151-1.437a0.744,0.744,0,0,1,.507-0.627,4.919,4.919,0,0,0,1.687-.966,0.756,0.756,0,0,1,.8-0.121l1.332,0.589a3.375,3.375,0,0,0,.917-1.573L13,26.411a0.739,0.739,0,0,1-.3-0.748,4.893,4.893,0,0,0,0-1.939A0.739,0.739,0,0,1,13,22.977Zm-2.285,1.71a2.854,2.854,0,1,1-2.854-2.826A2.843,2.843,0,0,1,10.715,24.688Zm-1.5,0a1.354,1.354,0,1,0-1.354,1.341A1.349,1.349,0,0,0,9.215,24.688ZM27.9,29.2l-2.408-6.513a0.748,0.748,0,0,0-.041-0.091,1.648,1.648,0,0,0-1.317-.972c-0.365-.045-0.724-0.065-1.071-0.084-0.17-.009-0.341-0.019-0.512-0.031A8.731,8.731,0,0,1,21,21.274a3.591,3.591,0,0,1-2-1.12,14.364,14.364,0,0,1-2.059-5.569,3.527,3.527,0,0,1,.8-2.134,8.37,8.37,0,0,1,1.029-1.172c0.121-.117.244-0.233,0.368-0.348,0.225-.21.457-0.428,0.681-0.661A1.624,1.624,0,0,0,20.246,8.5L17.838,1.986a1.668,1.668,0,0,0-2.131-.979l-1.664.6a5.341,5.341,0,0,0-1.189.554c-3,1.813-4.645,5.331-4.632,9.9a20.956,20.956,0,0,0,.167,2.538,0.75,0.75,0,0,0,1.489-.183,19.475,19.475,0,0,1-.156-2.359c-0.012-4.035,1.378-7.1,3.913-8.632a3.888,3.888,0,0,1,.921-0.427l1.667-.6a0.162,0.162,0,0,1,.206.095L18.837,9.01a0.158,0.158,0,0,1-.044.174c-0.017.015-.033,0.03-0.048,0.046-0.2.21-.413,0.409-0.639,0.62-0.13.121-.26,0.243-0.388,0.367a9.924,9.924,0,0,0-1.2,1.377A4.961,4.961,0,0,0,15.442,14.6a15.332,15.332,0,0,0,2.4,6.5,5.049,5.049,0,0,0,2.781,1.612,10.207,10.207,0,0,0,1.817.281c0.18,0.013.359,0.023,0.538,0.033,0.337,0.018.655,0.036,0.971,0.075a0.157,0.157,0,0,1,.129.1,0.716,0.716,0,0,0,.029.067l2.382,6.444a0.159,0.159,0,0,1-.1.2l-1.514.549a4.779,4.779,0,0,1-1.354.348,8.227,8.227,0,0,1-6.05-1.871,0.755,0.755,0,0,0-1.051.139,0.738,0.738,0,0,0,.141,1.041,10.138,10.138,0,0,0,6.112,2.228,8.47,8.47,0,0,0,1.033-.063,6.224,6.224,0,0,0,1.685-.428l1.514-.549A1.643,1.643,0,0,0,27.9,29.2Z"/>
</svg>
