<svg xmlns="http://www.w3.org/2000/svg" width="38" height="27" viewBox="0 0 38 27">
  <defs>
    <style>
      .cls-1 {
        fill-rule: evenodd;
      }
    </style>
  </defs>
  <path id="Фигура_36" data-name="Фигура 36" class="cls-1" d="M37.89,18.568a0.749,0.749,0,0,0-.762-0.344,19.036,19.036,0,0,1-2.5.241c1.732-2.738,2.6-6.348,2.644-10.988a0.745,0.745,0,0,0-.732-0.75c-0.1,0-.21,0-0.321,0A29.931,29.931,0,0,0,29,7.7a12.119,12.119,0,0,0-5.652,2.869,11.226,11.226,0,0,0-2.336-2.775,7.663,7.663,0,0,0-4.564-1.826c-0.091-.005-0.185-0.008-0.278-0.008-3.194,0-6.555,3.069-8.377,5.028a17.316,17.316,0,0,0,.015-4.576,5.463,5.463,0,0,0,.506-3.322A5.589,5.589,0,0,0,6.372.1,0.628,0.628,0,0,0,5.45.293a5.558,5.558,0,0,0-.6,3.509A5.46,5.46,0,0,0,6.577,6.61c0.8,5.7-2.434,12.395-2.473,12.474a0.623,0.623,0,0,0,.562.894,0.626,0.626,0,0,0,.563-0.349,31.009,31.009,0,0,0,1.949-5.446,12.464,12.464,0,0,1,2.128,3.932,16.071,16.071,0,0,0,2.329,4.407,11.653,11.653,0,0,0,4.777,3.468A15.073,15.073,0,0,0,22.005,27a19,19,0,0,0,9.155-2.366c4.861-2.826,6.621-5.138,6.693-5.235A0.739,0.739,0,0,0,37.89,18.568ZM6.073,3.551a3.79,3.79,0,0,1,.145-1.866,3.812,3.812,0,0,1,.876,1.658,3.789,3.789,0,0,1-.145,1.866A3.813,3.813,0,0,1,6.073,3.551ZM30.4,23.351a17.426,17.426,0,0,1-8.4,2.163A11.559,11.559,0,0,1,12.8,21.585a14.947,14.947,0,0,1-2.1-4.018,12.922,12.922,0,0,0-2.641-4.625c1.612-1.919,5.215-5.495,8.119-5.495,0.065,0,.13,0,0.194.005,2.556,0.143,4.648,1.759,6.22,4.8a0.75,0.75,0,0,0,1.311.035c1.729-2.947,8.442-3.989,11.86-4.077-0.139,4.518-1.13,7.908-3.023,10.348a0.74,0.74,0,0,0,.223,1.1,3.341,3.341,0,0,0,1.613.288c0.221,0,.45-0.008.677-0.021A30.079,30.079,0,0,1,30.4,23.351ZM13,11.568a1.15,1.15,0,0,0-.007,2.3h0A1.15,1.15,0,0,0,13,11.568Zm-4.3-3.94a0.629,0.629,0,0,0,.5.121,5.635,5.635,0,0,0,3.082-1.816,5.561,5.561,0,0,0,1.031-3.409,0.621,0.621,0,0,0-.239-0.455,0.628,0.628,0,0,0-.5-0.121A5.636,5.636,0,0,0,9.483,3.764,5.56,5.56,0,0,0,8.451,7.173,0.62,0.62,0,0,0,8.691,7.629Zm1.778-3.1a3.838,3.838,0,0,1,1.525-1.1,3.805,3.805,0,0,1-.7,1.737,3.835,3.835,0,0,1-1.525,1.1A3.807,3.807,0,0,1,10.468,4.53Zm-5.708,4a5.763,5.763,0,0,0,1.132-.1,0.625,0.625,0,0,0,.414-0.308A0.619,0.619,0,0,0,6.345,7.6a5.6,5.6,0,0,0-2.3-2.729,5.074,5.074,0,0,0-2.421-.566,5.77,5.77,0,0,0-1.132.1,0.626,0.626,0,0,0-.414.308,0.618,0.618,0,0,0-.039.512,5.593,5.593,0,0,0,2.3,2.729,5.074,5.074,0,0,0,2.421.566h0ZM1.6,5.552a3.87,3.87,0,0,1,1.84.412,3.827,3.827,0,0,1,1.339,1.32H4.761a3.88,3.88,0,0,1-1.819-.412A3.825,3.825,0,0,1,1.6,5.552Z"/>
</svg>
