<svg id="Группа_29" data-name="Группа 29" xmlns="http://www.w3.org/2000/svg" width="196" height="84" viewBox="0 0 196 84">
  <defs>
    <style>
      .cls-1, .cls-2 {
        fill: none;
        stroke-width: 2px;
      }

      .cls-1 {
        stroke: #4f4f4f;
      }

      .cls-1, .cls-2, .cls-4 {
        fill-rule: evenodd;
      }

      .cls-2 {
        stroke: #0cf;
      }

      .cls-3, .cls-4 {
        fill: #0cf;
      }
    </style>
  </defs>
  <path id="Прямоугольник_скругл._углы_1" data-name="Прямоугольник, скругл. углы 1" class="cls-1" d="M32,66V8a7,7,0,0,1,7-7h94a7,7,0,0,1,7,7V66"/>
  <path id="Прямоугольник_скругл._углы_2" data-name="Прямоугольник, скругл. углы 2" class="cls-1" d="M40,5h92a3,3,0,0,1,3,3V58a3,3,0,0,1-3,3H40a3,3,0,0,1-3-3V8A3,3,0,0,1,40,5Z"/>
  <path id="Фигура_36" data-name="Фигура 36" class="cls-1" d="M36,70H138"/>
  <path id="Фигура_37" data-name="Фигура 37" class="cls-1" d="M34,73H140"/>
  <path id="Фигура_38" data-name="Фигура 38" class="cls-2" d="M73,83l2-6H99l2,6H73Z"/>
  <path id="Прямоугольник_скругл._углы_3" data-name="Прямоугольник, скругл. углы 3" class="cls-1" d="M35.5,66H138.852a5.594,5.594,0,0,1,4.118,2.582l6.857,10.949c1.182,1.887.833,3.469-.819,3.469H25.345c-1.652,0-2-1.582-.819-3.469l6.857-10.949A5.593,5.593,0,0,1,35.5,66Z"/>
  <g id="Группа_30" data-name="Группа 30">
    <path id="Фигура_40" data-name="Фигура 40" class="cls-2" d="M74,32a3.685,3.685,0,0,0,4-4V18a2.08,2.08,0,0,1,2-2"/>
    <path id="Фигура_40-2" data-name="Фигура 40" class="cls-2" d="M74.092,32a3.645,3.645,0,0,1,3.939,4V46A2.07,2.07,0,0,0,80,48"/>
  </g>
  <g id="Группа_30-2" data-name="Группа 30">
    <path id="Фигура_40-3" data-name="Фигура 40" class="cls-2" d="M98.908,32a3.645,3.645,0,0,1-3.939-4V18A2.07,2.07,0,0,0,93,16"/>
    <path id="Фигура_40-4" data-name="Фигура 40" class="cls-2" d="M98.817,32s-3.878-.306-3.878,4V46A2.06,2.06,0,0,1,93,48"/>
  </g>
  <circle id="Эллипс_3" data-name="Эллипс 3" class="cls-3" cx="86" cy="25" r="2"/>
  <path id="Эллипс_3-2" data-name="Эллипс 3" class="cls-4" d="M86,34a2,2,0,0,1,2,2c0,0.68.045,5.978-3,6,0,0,2.33-2.718,1-4a1.688,1.688,0,0,1-2-2A2.076,2.076,0,0,1,86,34Z"/>
  <path id="Прямоугольник_скругл._углы_5" data-name="Прямоугольник, скругл. углы 5" class="cls-2" d="M4,29H20a3,3,0,0,1,3,3V64a3,3,0,0,1-3,3H4a3,3,0,0,1-3-3V32A3,3,0,0,1,4,29Z"/>
  <path id="Фигура_39" data-name="Фигура 39" class="cls-2" d="M8,35h8"/>
  <path id="Фигура_39-2" data-name="Фигура 39" class="cls-2" d="M10,63h4"/>
  <path id="Прямоугольник_скругл._углы_4" data-name="Прямоугольник, скругл. углы 4" class="cls-2" d="M152,10h40a3,3,0,0,1,3,3V65a3,3,0,0,1-3,3H152a3,3,0,0,1-3-3V13A3,3,0,0,1,152,10Z"/>
  <path id="Фигура_39-3" data-name="Фигура 39" class="cls-2" d="M168,16h8"/>
  <path id="Фигура_39-4" data-name="Фигура 39" class="cls-2" d="M170,64h4"/>
</svg>
