<svg id="Группа_27" data-name="Группа 27" xmlns="http://www.w3.org/2000/svg" width="160" height="101" viewBox="0 0 160 101">
  <defs>
    <style>
      .cls-1, .cls-2 {
        fill: none;
        stroke-linejoin: round;
        stroke-width: 2px;
        fill-rule: evenodd;
      }

      .cls-1 {
        stroke: #4f4f4f;
      }

      .cls-2 {
        stroke: #0cf;
      }
    </style>
  </defs>
  <path id="Фигура_36" data-name="Фигура 36" class="cls-1" d="M36.221,75.478H12.761c-0.033-.677-0.078-1.307-0.093-1.939a22.021,22.021,0,0,0-2.775-9.71c-2.134-4.1-4.435-8.114-6.371-12.3a25.967,25.967,0,0,1-2.293-14.1A22.728,22.728,0,0,1,8.3,23.074a21.987,21.987,0,0,1,12.362-5.8,31.356,31.356,0,0,1,10.659.274,22.118,22.118,0,0,1,10.123,4.588,20.769,20.769,0,0,1,6.368,9.474,24.8,24.8,0,0,1,1.16,10.31,26.06,26.06,0,0,1-1.519,6.267c-1.678,4.823-4.606,9-7.192,13.358a27.359,27.359,0,0,0-4.011,9.837A28.294,28.294,0,0,0,36.221,75.478Zm75.072-.578-3.919,21.522c-1.6-1.339-3.07-2.53-4.486-3.783A1.059,1.059,0,0,0,101.4,92.5a40.573,40.573,0,0,1-9.13,4.335c-1.892.6-3.749,1.358-5.681,1.769-2.436.518-4.929,0.773-7.4,1.108a42.82,42.82,0,0,1-10.8-.306A49.053,49.053,0,0,1,54.416,95.4a45.358,45.358,0,0,1-5.6-3.236c16.376,6.078,31.579,4.124,45.811-6.464l-3.948-3.429ZM96.872,7.094l4.863-4.648,5.389,21.187L86.1,17.717l3.645-3.708C75.027,4.5,59.849,3.488,44.032,10.529,53.165,2.688,74.823-4.433,96.872,7.094Z"/>
  <path id="Фигура_36-2" data-name="Фигура 36" class="cls-1" d="M30.688,69.691A36.076,36.076,0,0,1,32.441,64.5c1.877-3.658,3.993-7.193,5.975-10.8a69.421,69.421,0,0,0,3.463-6.641,19,19,0,0,0,1.411-9.993,16.982,16.982,0,0,0-3.011-7.905A15.477,15.477,0,0,0,30.21,23.05a28.244,28.244,0,0,0-7.786-.314A17.137,17.137,0,0,0,14.2,25.56,16.718,16.718,0,0,0,7.015,36.69a20.57,20.57,0,0,0,.868,10.594,57.954,57.954,0,0,0,5.349,10.875,70.638,70.638,0,0,1,3.553,7.614c0.544,1.261.876,2.613,1.3,3.917h12.6Zm-6.4,13.567c-3.225,0-6.449.021-9.674-.008-2.023-.018-3.306-1.925-2.336-3.484a3.063,3.063,0,0,1,2.773-1.233c2.113-.038,4.227-0.026,6.34-0.027,3.869,0,7.739-.03,11.607.022a6.15,6.15,0,0,1,2.558.516,1.946,1.946,0,0,1,1.163,2.3,2.9,2.9,0,0,1-2.65,1.916C30.81,83.25,27.55,83.258,24.289,83.258Zm0.02,7.7c-2.827,0-5.655.033-8.481-.017A4.043,4.043,0,0,1,12.847,89.8a1.979,1.979,0,0,1,.954-3.3,6.97,6.97,0,0,1,2.191-.381c5.618-.029,11.237-0.055,16.854.027a5.019,5.019,0,0,1,2.709.913,1.881,1.881,0,0,1-.535,3.264,8.326,8.326,0,0,1-2.66.6C29.679,91.006,26.993,90.956,24.309,90.956ZM15.628,94.2c5.61,0,11.045,0,16.479,0,0.243,0,.486.027,0.736,0.042-0.467,1.841-4.1,4.7-5.95,5.142a9.341,9.341,0,0,1-7.113-.81A10.444,10.444,0,0,1,15.628,94.2Z"/>
  <path id="Фигура_36-3" data-name="Фигура 36" class="cls-2" d="M12.129,41.944c0.186-4.487,1.523-8.562,4.889-11.774,1-.95,2.018-1.952,3.658-1.667a2.443,2.443,0,0,1,.82,4.48,8.276,8.276,0,0,0-3.638,4.865,17.163,17.163,0,0,0-.681,5.129,11.62,11.62,0,0,0,.691,3.578c0.4,1.266.186,2.263-.853,2.809-1.335.7-2.578,0.5-3.292-.621a12.417,12.417,0,0,1-1.5-5.146C12.152,43.069,12.161,42.53,12.129,41.944Z"/>
  <path id="Фигура_36-4" data-name="Фигура 36" class="cls-2" d="M112.241,38.866c1.97,0.6,3.208-.755,4.623-2.26a3.834,3.834,0,0,0,.977-4.166,7.934,7.934,0,0,1-.314-1.352c-0.149-1.265-.39-2.294,1.456-3.257,1.064-.555,2.1-1.165,3.183-1.679a2.685,2.685,0,0,1,3.519.725c0.559,0.589,1.071,1.225,1.653,1.791a3.122,3.122,0,0,0,3.072,1.047c0.93-.222,1.946-0.125,2.85-0.406a3.962,3.962,0,0,0,1.609-1.221c0.671-.76,1.18-1.66,1.834-2.438a2.213,2.213,0,0,1,2.773-.709c1.306,0.536,2.666.94,3.987,1.443a2.186,2.186,0,0,1,1.368,2.313,15.78,15.78,0,0,0-.044,2.779,4.613,4.613,0,0,0,1.034,2.4c1,0.987,1.855,2.333,3.434,2.5a9.6,9.6,0,0,0,2.635-.137c3.038-.536,3.643-0.239,4.91,2.6,0.3,0.676.592,1.357,0.9,2.031a2.312,2.312,0,0,1-.618,3.055c-0.679.631-1.367,1.254-2.054,1.877a3.081,3.081,0,0,0-.95,2.994,9.385,9.385,0,0,1,.15,1.807,2.858,2.858,0,0,0,1.306,2.516c0.623,0.456,1.281.865,1.918,1.3,1.527,1.048,1.873,2.364,1.126,4.388-0.341.926-.722,1.837-1.093,2.752a2.428,2.428,0,0,1-2.61,1.717c-0.966-.033-1.929-0.149-2.9-0.194-1.716-.079-2.379,1.433-3.5,2.282-1.8,1.367-1.355,3.036-.94,4.791,0.653,2.757.535,3.186-1.858,4.492a17.773,17.773,0,0,1-4.137,1.492,2.842,2.842,0,0,1-1.6-.625,2.208,2.208,0,0,1-.744-0.761c-1.325-2.133-3.25-2.716-5.672-2.484a3.892,3.892,0,0,0-3.166,1.753c-0.466.7-.915,1.419-1.4,2.107a2.579,2.579,0,0,1-3.078,1.022c-1.28-.4-2.557-0.817-3.814-1.283a2.36,2.36,0,0,1-1.6-2.6c0.047-.749.055-1.5,0.149-2.245a3.567,3.567,0,0,0-1.549-3.506,21.8,21.8,0,0,0-2.161-1.632c-1.381-.794-2.824-0.077-4.174.158-1.719.3-2.974-.049-3.7-1.909-0.421-1.072-1.029-2.07-1.478-3.132a2.322,2.322,0,0,1,.716-2.857,15.232,15.232,0,0,0,2.8-3.146c1.124-2.087.065-5.2-1.912-6.525-0.473-.316-0.938-0.646-1.389-0.992-1.52-1.163-1.8-2.073-1.178-3.914a28.266,28.266,0,0,1,1.23-3.261A2.246,2.246,0,0,1,110,38.861C110.642,38.888,111.288,38.866,112.241,38.866Zm20.473,23.161a11.039,11.039,0,1,0-11.08-11.039A11.023,11.023,0,0,0,132.714,62.027Zm-33.8-22.532c-0.307.882-.552,1.616-0.817,2.342-0.657,1.8.067,3.314,0.844,4.9a4.494,4.494,0,0,0,3.042,2.393c2.329,0.673,2.858,1.27,2.813,3.645a19.463,19.463,0,0,1-.311,3.721,2.622,2.622,0,0,1-1.235,1.588,17.925,17.925,0,0,1-2.762.739,2.7,2.7,0,0,0-1.364.733,14.664,14.664,0,0,0-2.293,3.727,8.544,8.544,0,0,0,.088,3.533,2.187,2.187,0,0,1-1.148,2.609,47.538,47.538,0,0,1-4.358,2.151c-0.921.389-1.683-.2-2.374-0.791-0.935-.806-1.768-1.914-2.859-2.315-2.536-.934-5-0.757-7.083,1.367-1.228,1.253-2.255,1.227-3.7.246-0.755-.513-1.53-1-2.265-1.54-1.951-1.435-2.262-2.2-1.352-4.386a4.3,4.3,0,0,0-.247-4.332,12.35,12.35,0,0,0-1.882-2.589,6.478,6.478,0,0,0-2.425-.992A2.6,2.6,0,0,1,65.2,53.621a40.524,40.524,0,0,1,.382-4.253,2.283,2.283,0,0,1,2.377-2.129c3.537-.18,6.557-4.234,5.385-7.318a6.9,6.9,0,0,1-.251-1.148,2.2,2.2,0,0,1,1.015-2.4,19.973,19.973,0,0,1,3.542-1.886c1.706-.644,2.4-0.97,4.183,1.256,1.9,2.378,4.295,2.336,6.8,1.77A6.717,6.717,0,0,0,90.835,35.9c1.447-1.161,2.056-1.28,3.7-.3A31.691,31.691,0,0,1,98.1,38.138,4.627,4.627,0,0,1,98.919,39.494ZM85.085,60.1a7.154,7.154,0,1,0,0-14.307A7.154,7.154,0,0,0,85.085,60.1Z"/>
</svg>
