<svg id="Группа_27" data-name="Группа 27" xmlns="http://www.w3.org/2000/svg" width="139" height="113" viewBox="0 0 139 113">
  <defs>
    <style>
      .cls-1, .cls-2 {
        fill: none;
        stroke-linejoin: round;
        stroke-width: 2px;
        fill-rule: evenodd;
      }

      .cls-1 {
        stroke: #4f4f4f;
      }

      .cls-2 {
        stroke: #0cf;
      }
    </style>
  </defs>
  <path id="Фигура_36" data-name="Фигура 36" class="cls-1" d="M93.641,75.512c-5.364-2.292-10.788-2.669-16.265-2.422a78.447,78.447,0,0,0-18.925,3.185c-7.175,2.141-14.264,4.568-21.59,6.936-0.023-.051-0.21-0.429-0.36-0.821q-6.668-17.4-13.353-34.8c-0.441-1.141-.268-1.576.89-2.023,5.5-2.125,11.018-4.24,16.427-6.594a93.944,93.944,0,0,0,8.344-4.515c1.977-1.11,3.979-2.2,5.846-3.475A64.137,64.137,0,0,0,59.7,26.962a27.3,27.3,0,0,0,3.588-3.337c2.181-2.655,4.2-5.448,6.278-8.183,0.2-.264.4-0.528,0.721-0.941ZM18.849,47.588l0.615,1.606C23.557,59.887,27.6,70.6,31.77,81.261c1.165,2.983,2.676,5.83,4.047,8.779l2.109-1.148L43.3,97.958c-0.3.154-.517,0.277-0.746,0.384-0.984.459-1.3,1.069-.643,2.089,1.586,2.459,3.085,4.974,4.688,7.422,0.6,0.922.5,1.388-.548,1.762q-2.948,1.05-5.845,2.242a1.415,1.415,0,0,1-1.808-.511c-2.215-2.555-4.4-5.136-6.655-7.654-2.707-3.024-5.483-5.986-8.212-8.991-1.074-1.183-2.066-2.443-3.175-3.59a1.462,1.462,0,0,0-1.288-.339c-2.875,1.291-5.669-.415-6.7-3.125C8.829,78.316,5.234,69.008,1.689,59.68c-0.769-2.023-.7-3.969.967-5.592a2.661,2.661,0,0,1,.834-0.608C8.541,51.528,13.6,49.6,18.849,47.588Zm67.179-4.149C81.713,32.165,77.369,20.9,73.1,9.608a4.677,4.677,0,0,1,2.288-5.939,4.8,4.8,0,0,1,6.257,2.248c0.132,0.282.226,0.581,0.338,0.872q12.755,33.324,25.546,66.633a5.306,5.306,0,0,1-2.07,6.493c-1.13.758-4.2,0.294-5.2-.872a8.585,8.585,0,0,1-1.505-2.413Q92.354,60.049,86.028,43.439Z"/>
  <path id="Фигура_36-2" data-name="Фигура 36" class="cls-2" d="M124.6,30.827q-4.1,1.571-8.209,3.141a2.606,2.606,0,0,1-3.362-1.14,2.542,2.542,0,0,1,1.089-3.518,8.617,8.617,0,0,1,1.327-.61c4.888-1.882,9.768-3.787,14.681-5.6a6.484,6.484,0,0,1,2.8-.319,2.126,2.126,0,0,1,1.842,2.28,2.508,2.508,0,0,1-1.711,2.54C130.229,28.652,127.416,29.748,124.6,30.827ZM102.79,48.47c-2.705-7.065-5.358-14-8.012-20.933C103.434,28.448,109.438,39.922,102.79,48.47ZM137.218,49.8a2.477,2.477,0,0,1-2.678,3.449q-7.448-1.171-14.9-2.346a2.768,2.768,0,0,1-2.472-1.959,2.633,2.633,0,0,1,1.252-3.031,3.972,3.972,0,0,1,2.386-.157q6.942,1.057,13.863,2.248C135.767,48.2,136.894,48.518,137.218,49.8ZM116.07,1.86a2.656,2.656,0,0,1,3.016.842,2.216,2.216,0,0,1,.105,3.027c-2.218,2.792-4.376,5.631-6.591,8.426a49.839,49.839,0,0,1-3.314,3.9,2.524,2.524,0,0,1-3.5.28,2.925,2.925,0,0,1-.148-3.987c2.9-3.57,5.765-7.163,8.67-10.725A24.055,24.055,0,0,1,116.07,1.86Z"/>
</svg>
