<svg id="Иконка_2_" data-name="Иконка 2 " xmlns="http://www.w3.org/2000/svg" width="77" height="134" viewBox="0 0 77 134">
  <defs>
    <style>
      .cls-1, .cls-2, .cls-3, .cls-5 {
        fill: none;
      }

      .cls-1, .cls-2 {
        stroke: #0cf;
      }

      .cls-1, .cls-2, .cls-5 {
        stroke-linecap: round;
        stroke-linejoin: round;
      }

      .cls-1, .cls-3, .cls-5 {
        stroke-width: 2px;
      }

      .cls-1, .cls-2, .cls-3, .cls-4, .cls-5 {
        fill-rule: evenodd;
      }

      .cls-2 {
        stroke-width: 1px;
      }

      .cls-3, .cls-5 {
        stroke: #4f4f4f;
      }

      .cls-4 {
        fill: #4f4f4f;
      }
    </style>
  </defs>
  <path id="Фигура_45" data-name="Фигура 45" class="cls-1" d="M2,32S4,6.462,29,3c0,0-12.211,8.256-11,29C18,32,11.3,27.41,2,32Zm19,0S21,5.791,37,2V31A13.256,13.256,0,0,0,21,32Zm54,0S73,6.462,48,3c0,0,12.211,8.256,11,29C59,32,65.7,27.41,75,32ZM56,32S56,5.791,40,2V31A13.256,13.256,0,0,1,56,32Z"/>
  <path id="Фигура_45-2" data-name="Фигура 45" class="cls-2" d="M38,81L21,32"/>
  <path id="Фигура_45-3" data-name="Фигура 45" class="cls-2" d="M2,32L38.5,81"/>
  <path id="Фигура_45-4" data-name="Фигура 45" class="cls-2" d="M39.493,81L56.26,32"/>
  <path id="Фигура_45-5" data-name="Фигура 45" class="cls-2" d="M75,32L39,81"/>
  <path id="Фигура_46" data-name="Фигура 46" class="cls-2" d="M38.5,80.519V31.481"/>
  <g id="окно_1" data-name="окно 1">
    <path id="Прямоугольник_скругл._углы_2" data-name="Прямоугольник, скругл. углы 2" class="cls-3" d="M7,81.943H70a3,3,0,0,1,3,3v44.114a3,3,0,0,1-3,3H7a3,3,0,0,1-3-3V84.943A3,3,0,0,1,7,81.943Z"/>
    <path id="Прямоугольник_скругл._углы_1" data-name="Прямоугольник, скругл. углы 1" class="cls-4" d="M3,90.985V85.241a4.344,4.344,0,0,1,4.43-4.252H69.567A4.344,4.344,0,0,1,74,85.241v5.744H3Zm6.72-7.142A2.142,2.142,0,1,1,7.5,85.984,2.182,2.182,0,0,1,9.723,83.844Zm5.886,0A2.142,2.142,0,1,1,13.4,85.984,2.174,2.174,0,0,1,15.609,83.844Zm5.9,0a2.142,2.142,0,1,1-2.205,2.141A2.174,2.174,0,0,1,21.511,83.844Z"/>
  </g>
  <path id="Фигура_41" data-name="Фигура 41" class="cls-5" d="M37.417,128.191c-8.108,0-16.216.013-24.323-.024-0.739,0-2.031-.248-2.1-0.531a2.445,2.445,0,0,1,.534-2.03c4.316-4.983,8.715-9.923,13.1-14.87,1.572-1.773,2.928-1.847,4.782-.262,1.056,0.9,2.085,1.827,3.12,2.745a2.1,2.1,0,0,0,3.327-.261c2.084-2.559,4.07-5.168,6.035-7.785,1.246-1.66,2.677-1.749,4.076-.133q7.464,8.622,14.9,17.262c0.963,1.116,2.012,2.189,2.89,3.344,0.417,0.549.934,1.413,0.661,1.828a3.393,3.393,0,0,1-2.255.687C53.91,128.208,45.663,128.191,37.417,128.191ZM59.2,103.253a4.7,4.7,0,0,1-4.715,4.594,4.655,4.655,0,1,1-.044-9.309A4.709,4.709,0,0,1,59.2,103.253Z"/>
</svg>
