<svg id="Иконка_1" data-name="Иконка 1" xmlns="http://www.w3.org/2000/svg" width="149" height="130" viewBox="0 0 149 130">
  <defs>
    <style>
      .cls-1, .cls-2, .cls-3 {
        fill: none;
        stroke-width: 2px;
      }

      .cls-1 {
        stroke: #4f4f4f;
      }

      .cls-1, .cls-3, .cls-4 {
        fill-rule: evenodd;
      }

      .cls-2, .cls-3 {
        stroke: #0cf;
      }

      .cls-4 {
        fill: #0cf;
      }
    </style>
  </defs>
  <path id="Фигура_39" data-name="Фигура 39" class="cls-1" d="M76,106h9s3,0.622,3,3v8a1.885,1.885,0,0,0,2,2h10a3.239,3.239,0,0,1,2,3c0,2.261-.6,4-2,4H49.962C48.585,126,48,124.261,48,122a3.23,3.23,0,0,1,1.962-3h9.811a1.875,1.875,0,0,0,1.962-2v-8c0-2.378,2.943-3,2.943-3h8.83m-8.83,0H85"/>
  <path id="Экран" class="cls-1" d="M11,1H138a10,10,0,0,1,10,10V92a10,10,0,0,1-10,10H11A10,10,0,0,1,1,92V11A10,10,0,0,1,11,1Z"/>
  <path id="линия" class="cls-1" d="M1,81H148"/>
  <circle id="Эллипс_3" data-name="Эллипс 3" class="cls-2" cx="74.5" cy="91.5" r="4.594"/>
  <g id="окно_2" data-name="окно 2">
    <path id="Прямоугольник_скругл._углы_1" data-name="Прямоугольник, скругл. углы 1" class="cls-3" d="M69.8,27.948V17.783a3,3,0,0,1,3-3h32.4a3,3,0,0,1,3,3V39.218a3,3,0,0,1-3,3H88.184"/>
    <path id="Прямоугольник_скругл._углы_1-2" data-name="Прямоугольник, скругл. углы 1" class="cls-4" d="M69.013,19.992v-3.44a2.521,2.521,0,0,1,2.494-2.546h34.986a2.521,2.521,0,0,1,2.5,2.546v3.44H69.013Zm3.776-4.263A1.271,1.271,0,1,1,71.537,17,1.262,1.262,0,0,1,72.789,15.729Zm3.317,0A1.271,1.271,0,1,1,74.854,17,1.262,1.262,0,0,1,76.106,15.729Zm3.333,0A1.272,1.272,0,1,1,78.2,17,1.254,1.254,0,0,1,79.439,15.729Z"/>
  </g>
  <g id="окно_1" data-name="окно 1">
    <path id="Прямоугольник_скругл._углы_1-3" data-name="Прямоугольник, скругл. углы 1" class="cls-3" d="M42.969,28.969H85.031a3,3,0,0,1,3,3V61.031a3,3,0,0,1-3,3H42.969a3,3,0,0,1-3-3V31.969A3,3,0,0,1,42.969,28.969Z"/>
    <path id="Прямоугольник_скругл._углы_1-4" data-name="Прямоугольник, скругл. углы 1" class="cls-4" d="M38.993,35V30.978A3.05,3.05,0,0,1,42.113,28H85.887a3.05,3.05,0,0,1,3.121,2.973V35H38.993Zm4.721-4.982A1.488,1.488,0,1,1,42.153,31.5,1.525,1.525,0,0,1,43.714,30.013Zm4.161,0a1.488,1.488,0,1,1-1.56,1.487A1.525,1.525,0,0,1,47.875,30.013Zm4.161,0a1.488,1.488,0,1,1-1.56,1.487A1.525,1.525,0,0,1,52.036,30.013Z"/>
  </g>
</svg>
